<svg width="20" height="17" viewBox="0 0 20 17" fill="none" xmlns="http://www.w3.org/2000/svg">
<path d="M0 6.25234V10.7475C0 11.405 0.539918 11.939 1.19982 11.939H5.54716V5.06081H1.19982C0.539918 5.06081 0 5.5948 0 6.25234Z" fill="white"/>
<path d="M6.34698 12.2737L13.5339 16.9323C13.5979 16.9761 13.6739 17 13.7499 17C13.8179 17 13.8818 16.9841 13.9418 16.9522C14.0698 16.8804 14.1498 16.745 14.1498 16.6015V0.39826C14.1498 0.250813 14.0698 0.119306 13.9418 0.0475751C13.8139 -0.0201708 13.6579 -0.0161858 13.5339 0.0635153L6.34698 4.72603V12.2737Z" fill="white"/>
<path d="M17.4254 13.3298C17.5054 13.4095 17.6054 13.4453 17.7093 13.4453C17.8133 13.4453 17.9133 13.4055 17.9933 13.3298C20.6689 10.6638 20.6689 6.332 17.9933 3.666C17.8373 3.51058 17.5854 3.51058 17.4294 3.666C17.2734 3.82142 17.2734 4.07248 17.4294 4.22789C18.5732 5.36762 19.2051 6.88593 19.2051 8.49589C19.2051 10.1098 18.5732 11.6242 17.4294 12.7639C17.2694 12.9233 17.2694 13.1743 17.4254 13.3298Z" fill="white"/>
<path d="M15.5975 11.5126C15.6775 11.5923 15.7775 11.6281 15.8815 11.6281C15.9854 11.6281 16.0854 11.5883 16.1654 11.5126C16.9733 10.7076 17.4172 9.6396 17.4172 8.49987C17.4172 7.36014 16.9733 6.29215 16.1654 5.48717C16.0094 5.33175 15.7575 5.33175 15.6015 5.48717C15.4455 5.64259 15.4455 5.89364 15.6015 6.04906C16.9573 7.39999 16.9573 9.59576 15.6015 10.9467C15.4415 11.1021 15.4415 11.3532 15.5975 11.5126Z" fill="white"/>
</svg>
