<svg width="6" height="11" viewBox="0 0 6 11" fill="none" xmlns="http://www.w3.org/2000/svg">
<path d="M1.12075 1.10349C0.970817 1.25476 0.958095 1.51439 1.09167 1.68304L1.63597 1.1362C1.50148 0.967542 1.27068 0.953231 1.12075 1.10349ZM4.98529 5.16231L1.71415 1.07385L1.71405 1.07372C1.54325 0.85966 1.24307 0.839331 1.04996 1.03285L1.04972 1.03309C0.863452 1.22104 0.84893 1.53762 1.01328 1.74513L1.01315 1.74523L1.01696 1.74951L1.01705 1.74961L4.01856 5.49974L1.0157 9.25156C1.01565 9.25162 1.0156 9.25168 1.01555 9.25175C0.849054 9.45808 0.861399 9.77478 1.04756 9.964C1.23871 10.1592 1.538 10.1425 1.71045 9.93002L1.7107 9.92973L1.71081 9.92982L1.71405 9.92576L4.98529 5.83717L4.98567 5.8367C5.06691 5.73389 5.10763 5.5999 5.09786 5.46447C5.09115 5.35479 5.05272 5.24844 4.98595 5.16314L4.98595 5.16314L4.98529 5.16231Z" fill="#01247E" stroke="#01247E" stroke-width="0.2"/>
</svg>
